#!OML:ASF F:\VICON\USERDATA\INSTALL\rory3\rory3.ASF
:FULLY-SPECIFIED
:DEGREES
28
root 0.570379965164947 17.41574010246296 -12.318884113924312 8.287863225724173 -1.0359730864358472 -1.9903247696909911
lfemur -21.347084282288254 9.494212092527738 -18.413721324054617
ltibia 27.519645534688035
lfoot -10.990502425847694 3.193638004530751
ltoes -7.99987940584217
rfemur -20.65261633426462 -3.098296277184847 19.903717774118505
rtibia 28.648316250361304
rfoot -13.77627831368486 -2.117603079167788
rtoes 6.903595613436065
lowerback 0.521836194752801 -0.11440309819865394 0.8591409316577854
upperback 5.624491987149465 -0.26192595406088337 1.775272912660514
thorax 4.5716316027324755 -0.14597467743554407 1.4567782099522948
lowerneck -11.685497066506136 0.16305472505056434 -1.9896548410810733
upperneck 30.807208402164164 0.5537208439027026 0.900363792087094
head 12.032925593833369 0.055054076811490306 0.7971475522388209
lclavicle -1.5208145650200855e-15 5.462943142541041e-16
lhumerus -18.71109359884435 -7.948360997126887 90.15436077075734
lradius 23.66875483915265
lwrist 6.45770923036786
lhand -23.083424971903412 -2.826515490173768
lfingers 7.125019999999999
lthumb 3.362365105398454 27.104504028930528
rclavicle -1.5208145650200855e-15 5.462943142541039e-16
rhumerus -18.73079581870762 -9.969972898571227 -81.90965092846581
rradius 29.915767467249783
rwrist 32.45255449733707
rhand -16.750373024723157 -26.97805268774105
rfingers 7.125019999999999
rthumb 9.4758643568857 -56.7750238578214
29
root 0.5768008095355374 17.360142926082954 -12.547746991605997 8.863856194570767 -1.037011013808884 -2.0216774464833454
lfemur -22.43658728553436 9.627653405091193 -18.522173964238487
ltibia 28.73361662143363
lfoot -11.550730751149416 3.506664292746994
ltoes -8.272907666969154
rfemur -21.786626296574816 -3.039328121054229 20.029283182871815
rtibia 29.90371746547687
rfoot -14.314520499014083 -2.049145268886306
rtoes 6.55906247050661
lowerback 0.9678623329349051 -0.07156186532507361 0.8469510525989119
upperback 5.87511915752123 -0.21438067843866376 1.801710498321635
thorax 4.4407382306206635 -0.12051649556713664 1.4959845909051133
lowerneck -11.823101756682144 0.15597043025129803 -1.9656690109945636
upperneck 30.017372299001494 0.5442176331809122 0.8388867785431667
head 11.754106198522367 0.05631768881795216 0.7752541248571347
lclavicle -1.495112667246842e-15 5.813468140342549e-16
lhumerus -19.048411407036834 -8.107758572712715 90.10179688812093
lradius 23.9484309516366
lwrist 7.422860453354922
lhand -23.24932302965752 -2.858250397057079
lfingers 7.125019999999999
lthumb 3.2021667748887337 27.073726258028465
rclavicle -1.4951126672468422e-15 5.813468140342547e-16
rhumerus -18.941813424529172 -10.059906754665661 -81.76251511002675
rradius 29.983076012961934
rwrist 32.24577091741673
rhand -16.685967002271735 -26.987548600826777
rfingers 7.125019999999999
rthumb 9.538015528200255 -56.78280556552247
30
root 0.5818320262089526 17.290382160656684 -13.191035410885881 9.386921198175385 -1.0701312824730365 -2.072835680568078
lfemur -23.841326103384937 9.715562614350501 -18.66835001827822
ltibia 29.710299898119075
lfoot -12.02734766191448 3.7000265655790434
ltoes -8.84923114330432
rfemur -23.19630166798897 -3.023889768903221 20.163775265033703
rtibia 30.871915321460367
rfoot -14.794028037116929 -2.248586091885165
rtoes 6.235363370394714
lowerback 1.4707622867800487 -0.02516277443599775 0.839188488762797
upperback 6.166880934903295 -0.15413374832934953 1.8202559036570927
thorax 4.257781575409108 -0.09158668635854159 1.519748154225271
lowerneck -11.971468888630135 0.137833247087899 -1.9299196913825336
upperneck 28.908251761604678 0.5103873362706418 0.7504571612048777
head 11.356032346787554 0.04988765144408181 0.7426183523487213
lclavicle -1.5592924386512075e-15 4.969915428290719e-16
lhumerus -19.28770451493814 -8.497471446478668 90.12551664011325
lradius 24.208054563619058
lwrist 7.970086665907629
lhand -23.41620111804738 -2.9277377005015275
lfingers 7.125019999999999
lthumb 3.0410150698089065 27.004288177684447
rclavicle -1.5592924386512073e-15 4.969915428290718e-16
rhumerus -19.06427639049584 -10.199312466857632 -81.73524446363821
rradius 30.00232718200327
rwrist 31.9116267713098
rhand -16.65209581878426 -27.01172368153401
rfingers 7.125019999999999
rthumb 9.57068973647431 -56.80602121725709
31
root 0.5835905688919693 17.216450054773848 -13.495400455341265 9.945856589165556 -1.1263648679473874 -2.140131763296835
lfemur -25.32538659662595 9.807810247013323 -18.825550033091176
ltibia 30.930445886068107
lfoot -12.50588126552323 4.070437473359673
ltoes -9.355667014420932
rfemur -24.73910366902915 -2.9700800944382353 20.335446318328913
rtibia 32.077555215059135
rfoot -15.227730480477053 -2.3619929394413455
rtoes 5.964813295372122
lowerback 1.9577095537730371 0.02087497509783697 0.8456760699002377
upperback 6.473579657574462 -0.09659332944651267 1.8361233758851088
thorax 4.0844338751294025 -0.06164241375086013 1.5290134854981376
lowerneck -12.12388933363819 0.13123579629792698 -1.9064108209498392
upperneck 27.73882228038174 0.49577240793707855 0.6910130042390443
head 10.940006392996048 0.05404531179514712 0.7203516276039381
lclavicle -1.6155546468100062e-15 4.20399191829479e-16
lhumerus -19.60480629793083 -8.64437530503764 89.96569115136975
lradius 24.30958231049285
lwrist 8.463919276735437
lhand -23.57349185502558 -2.9566953682055797
lfingers 7.125019999999999
lthumb 2.8891222077849186 26.97598023873417
rclavicle -1.6155546468100062e-15 4.2039919182947916e-16
rhumerus -19.37868592470764 -10.073182035210964 -81.69211098731719
rradius 30.102435822039585
rwrist 31.606964247395776
rhand -16.628358167143265 -27.037493979138556
rfingers 7.125019999999999
rthumb 9.593605277836277 -56.831679446355146
32
root 0.5921777010354166 17.133319035878106 -13.926713450897806 10.563163423244783 -1.2040131159807173 -2.1900148672360547
lfemur -26.62634484412686 9.935906760556236 -18.987540276523845
ltibia 32.11845272450531
lfoot -13.05269336449123 4.334164353096732
ltoes -9.817485202803457
rfemur -26.06838539060126 -2.91406882157705 20.47060394786524
rtibia 33.29621014698612
rfoot -15.745527101388095 -2.3496579358003578
rtoes 5.391237517646772
lowerback 2.427379927497654 0.07215838970274419 0.8280877869840613
upperback 6.730980159806496 -0.037924560623357834 1.8481022635858857
thorax 3.9498532118269694 -0.031157061486535874 1.5496848496837932
lowerneck -12.276834967356951 0.1398424593926379 -1.8698774326198666
upperneck 26.51271138376665 0.503267156254932 0.6005790208780262
head 10.513619888902813 0.0652446085389985 0.6903977993543186
lclavicle -1.631814742617073e-15 3.994609371946548e-16
lhumerus -20.34691108244654 -8.504882455435922 89.83205776438771
lradius 24.31726245687446
lwrist 8.515961635422995
lhand -23.64743484214347 -2.924682928216511
lfingers 7.125019999999999
lthumb 2.817711940018938 27.009439171705512
rclavicle -1.631814742617073e-15 3.9946093719465474e-16
rhumerus -19.91036776323182 -10.26597416502146 -81.53565584074981
rradius 30.00005970034019
rwrist 31.438683797302517
rhand -16.627231907547547 -27.0145299170243
rfingers 7.125019999999999
rthumb 9.594702312777178 -56.80769231369368
33
root 0.594990161182162 17.043339788326463 -14.603242038372246 11.117740906463446 -1.270301860216303 -2.248098545676623
lfemur -28.293872337305586 10.083902521083292 -19.1699530028613
ltibia 33.65717521643208
lfoot -13.485671737343354 4.693959913914851
ltoes -10.294981178913828
rfemur -27.76557727250736 -2.8737706500673754 20.67808331705594
rtibia 34.86629162658604
rfoot -16.17076786459081 -2.64207982147017
rtoes 5.155438643259501
lowerback 3.1265654326420216 0.11658186392699363 0.8261193424632534
upperback 7.088676477272783 0.024807948028131216 1.8517167428510855
thorax 3.7352692115322146 -0.004189154087714433 1.5566595345806884
lowerneck -12.453689654382401 0.14465226052392005 -1.8463022190338294
upperneck 25.110068517390555 0.5056267260487619 0.5201992237664212
head 10.021330365768769 0.07575432926401202 0.6630768008029169
lclavicle -1.6598422190876222e-15 3.608932394692418e-16
lhumerus -20.940197778861123 -8.351147991126515 89.7293776521723
lradius 24.159020962888313
lwrist 8.402441042046767
lhand -23.732133366520504 -2.9515043818108038
lfingers 7.125019999999999
lthumb 2.735910421096925 26.98182889452302
rclavicle -1.6598422190876222e-15 3.608932394692418e-16
rhumerus -20.31268649574793 -10.196583731493654 -81.40459740878663
rradius 30.0342771959199
rwrist 31.14476180941619
rhand -16.593638649165 -26.998354053684206
rfingers 7.125019999999999
rthumb 9.627106122826875 -56.78937324970629
34
root 0.5945259582282003 16.941603052933456 -14.888914218508809 11.76748289652656 -1.3227147154433625 -2.31690079715256
lfemur -30.151557382933873 10.17212461249278 -19.35176787972549
ltibia 35.347424566262
lfoot -14.018859125533753 5.039872829798371
ltoes -10.917806908679447
rfemur -29.632740187994983 -2.863024095798565 20.901410953943287
rtibia 36.53558890188773
rfoot -16.623293834813097 -2.7760063449311687
rtoes 4.704946114196615
lowerback 3.746073614739002 0.15473987907794176 0.8086761980230859
upperback 7.456579100477701 0.07473020028273228 1.8727373195715415
thorax 3.5313041757224197 0.01615224716431632 1.5749579437862313
lowerneck -12.65245369237434 0.1557499204344805 -1.8304728349416763
upperneck 23.503521363850194 0.5188351444581418 0.4380730445762311
head 9.459082283744126 0.08969070452876982 0.6390135190956348
lclavicle -1.7262427428390093e-15 2.701994818284229e-16
lhumerus -21.646646844964586 -8.441364697646733 89.55363682945189
lradius 24.096765164653533
lwrist 8.92520564171836
lhand -23.898973496763904 -3.0066195128723057
lfingers 7.125019999999999
lthumb 2.5747944454242377 26.92789337504249
rclavicle -1.7262427428390093e-15 2.701994818284229e-16
rhumerus -20.998246802748717 -9.967485775533511 -81.18389747560873
rradius 30.231107812321177
rwrist 30.92085229770293
rhand -16.60559585305161 -26.994435783367642
rfingers 7.125019999999999
rthumb 9.615570680445243 -56.784130791450515
35
root 0.6006263587119278 16.822431097706122 -15.324429442366174 12.470941822215813 -1.3457867113324882 -2.382102361439484
lfemur -31.842019103372397 10.380268937008955 -19.493697852359634
ltibia 37.52748715748215
lfoot -14.728245781034989 5.41992892811906
ltoes -11.66294400786467
rfemur -31.285653390567095 -2.925339176087433 21.146013094929934
rtibia 38.820808316544905
rfoot -17.336474672551542 -2.878009608476791
rtoes 3.842882042825806
lowerback 4.538425919815155 0.2139041599567971 0.7612396442464382
upperback 7.753604445466482 0.14894384737421862 1.9060069837880993
thorax 3.242869476234284 0.04994317957926839 1.6269172280652933
lowerneck -12.929395605419035 0.1672135168386224 -1.8058092472063727
upperneck 22.086897022199757 0.5386853143713655 0.3546496294305066
head 8.985334317838582 0.10685581174197539 0.6131671123326007
lclavicle -1.6659508901437616e-15 3.522646856345961e-16
lhumerus -22.802399860707375 -8.30653461962487 89.39937763363541
lradius 24.15034996463253
lwrist 9.626071023306881
lhand -23.949236613879826 -3.0555394797170705
lfingers 7.125019999999999
lthumb 2.5262359757657267 26.878630220037962
rclavicle -1.6659508901437616e-15 3.5226468563459597e-16
rhumerus -21.759892346780894 -9.780708314357415 -80.80165647502379
rradius 30.354410190291926
rwrist 30.77295051941195
rhand -16.61660292653331 -26.9490032778509
rfingers 7.125019999999999
rthumb 9.604939332658226 -56.73679253444945
